<svg width="17" height="18" viewBox="0 0 17 18" fill="none" xmlns="http://www.w3.org/2000/svg">
<path fill-rule="evenodd" clip-rule="evenodd" d="M2.0223e-05 8.99935C2.0223e-05 4.39685 3.73085 0.666016 8.33335 0.666016C12.9359 0.666016 16.6667 4.39685 16.6667 8.99935C16.6667 13.6018 12.9359 17.3327 8.33335 17.3327C7.2593 17.3337 6.19524 17.1266 5.20002 16.7227C5.13644 16.6974 5.07255 16.673 5.00835 16.6493C4.95741 16.657 4.90658 16.6653 4.85585 16.6743L1.89085 17.1677L1.86669 17.1718C1.73335 17.1943 1.58335 17.2193 1.45335 17.2293C1.31169 17.2393 1.08669 17.2435 0.84752 17.141C0.552894 17.0146 0.318104 16.7798 0.191687 16.4852C0.113311 16.2935 0.0829866 16.0855 0.103354 15.8793C0.113354 15.7493 0.138354 15.5993 0.160854 15.466L0.16502 15.441L0.659187 12.4768C0.668224 12.4247 0.676558 12.3725 0.684187 12.3202C0.230401 11.272 -0.00249913 10.1415 2.0223e-05 8.99935ZM8.33335 2.33268C7.24094 2.3324 6.1652 2.60058 5.20076 3.11361C4.23631 3.62664 3.41271 4.36882 2.80241 5.27485C2.19211 6.18088 1.8138 7.223 1.70077 8.30955C1.58774 9.39609 1.74344 10.4938 2.15419 11.506L2.16919 11.5435C2.22002 11.6685 2.28085 11.816 2.31085 11.9552C2.34002 12.0802 2.35252 12.1902 2.35252 12.3193C2.35252 12.461 2.32752 12.6027 2.30835 12.7193L2.30335 12.751L1.84752 15.4852L4.58169 15.0293L4.61419 15.0243C4.72919 15.0052 4.87252 14.981 5.01419 14.981C5.14252 14.981 5.25252 14.9927 5.37752 15.021C5.5316 15.0605 5.6819 15.1135 5.82669 15.1793C6.73809 15.5481 7.71978 15.7107 8.70141 15.6555C9.68304 15.6003 10.6403 15.3287 11.5046 14.86C12.3689 14.3914 13.1189 13.7374 13.7008 12.9449C14.2827 12.1525 14.6821 11.2411 14.8704 10.2761C15.0586 9.3111 15.0312 8.31642 14.7899 7.36331C14.5486 6.41019 14.0995 5.52224 13.4748 4.76308C12.85 4.00392 12.0651 3.39234 11.1762 2.97216C10.2873 2.55198 9.31653 2.33361 8.33335 2.33268ZM4.16669 6.91602C4.16669 6.695 4.25448 6.48304 4.41076 6.32676C4.56705 6.17048 4.77901 6.08268 5.00002 6.08268H8.33335C8.55437 6.08268 8.76633 6.17048 8.92261 6.32676C9.07889 6.48304 9.16669 6.695 9.16669 6.91602C9.16669 7.13703 9.07889 7.34899 8.92261 7.50527C8.76633 7.66155 8.55437 7.74935 8.33335 7.74935H5.00002C4.77901 7.74935 4.56705 7.66155 4.41076 7.50527C4.25448 7.34899 4.16669 7.13703 4.16669 6.91602ZM4.16669 9.83268C4.16669 9.61167 4.25448 9.39971 4.41076 9.24343C4.56705 9.08715 4.77901 8.99935 5.00002 8.99935H10.8334C11.0544 8.99935 11.2663 9.08715 11.4226 9.24343C11.5789 9.39971 11.6667 9.61167 11.6667 9.83268C11.6667 10.0537 11.5789 10.2657 11.4226 10.4219C11.2663 10.5782 11.0544 10.666 10.8334 10.666H5.00002C4.77901 10.666 4.56705 10.5782 4.41076 10.4219C4.25448 10.2657 4.16669 10.0537 4.16669 9.83268Z" fill="white"/>
</svg>
